<?xml version="1.0" standalone="no"?>
<!DOCTYPE svg PUBLIC "-//W3C//DTD SVG 20010904//EN"
 "http://www.w3.org/TR/2001/REC-SVG-20010904/DTD/svg10.dtd">
<svg version="1.0" xmlns="http://www.w3.org/2000/svg"
 width="629.000000pt" height="282.000000pt" viewBox="0 0 629.000000 282.000000"
 preserveAspectRatio="xMidYMid meet">
<metadata>
Created by potrace 1.15, written by Peter Selinger 2001-2017
</metadata>
<g transform="translate(0.000000,282.000000) scale(0.100000,-0.100000)"
fill="#000000" stroke="none">
<path d="M685 2275 c-22 -8 -41 -15 -42 -15 -1 0 -7 -10 -14 -21 -9 -17 -8
-23 2 -30 12 -8 11 -11 -1 -20 -13 -9 -12 -10 3 -5 9 3 17 0 17 -6 0 -7 6 -6
16 3 21 17 156 19 161 1 3 -6 9 -10 14 -6 5 3 9 -2 9 -10 0 -17 -36 -40 -49
-31 -9 5 -25 0 -97 -31 -30 -13 -76 -58 -119 -117 -11 -15 -27 -27 -36 -27 -8
0 -16 -7 -16 -15 0 -10 6 -13 19 -9 10 3 18 1 18 -5 0 -5 -10 -12 -22 -14 -14
-3 -8 -5 15 -6 41 -1 48 -23 11 -29 -10 -2 -23 -8 -29 -14 -6 -6 -4 -7 7 -3
11 4 21 -1 30 -14 10 -16 22 -21 53 -20 l40 2 -39 6 c-61 9 -60 34 0 29 46 -4
136 -47 104 -49 -20 -2 -22 -2 -45 7 -11 4 -1 -7 22 -25 24 -17 47 -31 53 -31
15 0 12 -27 -4 -33 -8 -3 -20 1 -26 9 -7 8 -23 14 -37 14 -13 0 -26 7 -29 15
-4 8 -11 15 -18 15 -6 -1 5 -15 24 -32 19 -16 30 -32 24 -34 -5 -3 -9 -19 -8
-37 1 -17 -3 -38 -9 -46 -9 -11 -9 -15 1 -19 7 -2 18 -10 26 -17 7 -8 16 -12
19 -9 3 3 4 -6 3 -20 0 -14 -6 -26 -13 -26 -21 0 -24 -38 -9 -91 12 -39 13
-56 5 -66 -18 -21 0 -15 25 10 21 19 28 37 40 97 7 38 18 50 44 45 19 -3 22
-1 14 7 -15 15 -16 42 -2 33 6 -4 10 8 10 30 0 21 4 34 10 30 5 -3 7 0 5 8 -7
16 31 67 50 67 8 0 16 3 18 8 3 4 -12 6 -34 6 -41 -2 -50 8 -21 25 15 9 15 10
-4 11 -11 0 -28 8 -37 18 -15 16 -12 17 38 20 29 1 64 6 77 11 19 8 13 10 -27
9 -27 -1 -66 2 -85 6 -46 10 -160 64 -160 76 0 12 18 22 22 12 6 -18 92 -65
96 -53 5 16 32 14 38 -4 7 -17 34 -21 34 -5 0 6 11 5 26 -2 21 -10 28 -9 38 2
13 18 55 14 63 -6 3 -8 11 -14 19 -14 8 0 11 -6 8 -15 -7 -18 7 -20 24 -3 9 9
12 9 12 0 0 -9 5 -10 19 -3 11 6 19 21 19 38 0 15 4 29 9 30 6 2 8 15 5 29 -5
28 19 57 56 68 35 12 46 42 22 63 -13 13 -18 27 -15 45 4 21 -1 28 -28 41 -29
15 -32 15 -38 0 -4 -12 -8 -13 -13 -5 -4 7 -5 15 -3 20 3 4 -13 19 -35 35 -34
24 -38 25 -28 6 19 -35 1 -35 -30 2 -16 19 -29 28 -30 22 0 -7 -5 -13 -11 -13
-5 0 -8 4 -5 8 6 11 -4 24 -31 39 -16 9 -23 9 -25 1 -3 -7 -10 -8 -17 -4 -7 5
-10 13 -8 20 3 6 -3 12 -13 12 -12 0 -16 -6 -12 -19 4 -14 1 -18 -9 -15 -8 3
-14 10 -14 16 0 6 -7 17 -15 24 -12 11 -12 11 -1 -4 10 -14 11 -18 1 -18 -9 0
-9 -4 1 -17 13 -17 13 -17 -5 -3 -18 14 -19 13 -12 -4 7 -19 6 -19 -14 -1 -24
22 -26 29 -5 21 8 -3 15 -1 15 5 0 7 -10 9 -26 5 -21 -6 -25 -4 -21 8 8 20 -6
20 -58 1z m238 -195 c38 -14 121 -106 113 -125 -5 -14 -9 -15 -22 -5 -8 7 -12
20 -9 28 6 16 -67 92 -88 92 -7 0 3 -14 21 -30 43 -39 40 -45 -9 -20 -22 12
-48 19 -57 17 -13 -4 -12 -5 4 -6 11 0 29 -8 40 -17 22 -17 27 -18 -64 6 -60
15 -89 6 -147 -46 -52 -46 -90 -63 -106 -47 -5 5 -1 9 11 10 23 2 97 51 125
84 l20 23 -36 -22 c-44 -27 -53 -28 -40 -4 5 10 37 32 71 50 64 33 113 36 173
12z"/>
<path d="M1597 2179 c-6 -22 -34 -21 -29 0 1 7 -2 10 -8 6 -5 -3 -10 -12 -10
-19 0 -17 -35 -48 -44 -39 -3 4 -5 -2 -4 -13 2 -10 0 -19 -3 -19 -3 0 -14 -6
-23 -14 -9 -8 -16 -10 -15 -5 1 5 1 16 0 25 -1 19 -31 21 -31 3 0 -8 -6 -11
-14 -8 -8 3 -19 -3 -25 -14 -8 -15 -8 -21 2 -25 15 -5 -9 -37 -28 -37 -15 0
-27 -53 -14 -61 6 -4 5 -16 -2 -33 -10 -22 -10 -33 4 -62 10 -19 15 -39 12
-44 -10 -17 20 -29 38 -15 18 13 18 14 0 24 -15 9 -13 11 17 12 31 1 32 2 10
8 -22 6 -23 8 -7 14 26 10 119 9 135 -2 10 -6 8 -10 -10 -15 l-23 -6 25 -15
c32 -18 76 -19 83 -2 3 8 8 40 12 72 6 48 5 56 -6 49 -8 -5 -20 -9 -28 -11 -8
-1 -17 -6 -20 -12 -4 -6 -36 -10 -76 -8 l-70 2 2 35 c1 28 10 43 45 73 47 42
103 71 118 62 6 -4 10 -1 10 5 0 6 10 10 22 8 25 -3 38 31 28 71 -8 34 -28 37
-41 7 -15 -33 -31 -34 -23 -1 3 14 4 25 1 25 -2 0 -7 -9 -10 -21z"/>
<path d="M3079 1835 c-6 -110 -36 -195 -70 -195 -18 0 -24 -13 -55 -128 -12
-44 -21 -61 -30 -58 -19 7 -28 -12 -26 -59 1 -22 -4 -100 -11 -173 -8 -80 -9
-136 -4 -141 6 -6 6 -39 0 -85 -7 -61 -6 -76 4 -76 9 0 13 -18 14 -57 l1 -58
8 50 c4 28 17 86 28 129 19 71 19 81 5 91 -20 15 -14 60 10 59 9 -1 17 4 17
12 0 8 -7 14 -16 14 -14 0 -16 9 -12 52 3 29 12 56 20 62 8 6 18 32 22 59 4
27 12 47 20 47 7 0 43 -10 81 -23 59 -20 70 -28 78 -53 5 -16 13 -155 16 -309
4 -154 8 -265 9 -247 2 36 37 112 52 112 5 0 7 7 3 16 -5 13 -12 6 -30 -27
l-24 -44 7 90 c3 50 8 92 10 94 9 9 33 -25 36 -49 2 -14 6 -27 9 -30 7 -6 64
-248 75 -320 l7 -45 14 45 c12 41 11 49 -9 100 -13 30 -26 56 -30 58 -5 2 -5
20 -2 40 3 20 1 64 -4 97 -10 57 -9 62 19 106 16 25 29 50 29 56 0 6 7 16 15
23 8 7 17 27 21 46 4 20 12 34 21 34 8 0 11 -4 8 -10 -3 -5 -1 -10 6 -10 7 0
9 8 5 23 -7 27 22 157 40 176 10 11 17 5 39 -39 15 -29 35 -77 44 -107 9 -30
21 -54 26 -54 4 0 16 32 26 70 21 82 36 114 51 109 16 -6 76 -217 94 -333 9
-55 21 -133 27 -172 6 -40 15 -73 19 -73 5 0 12 -10 17 -21 4 -13 7 28 6 95
-1 64 2 119 6 122 5 2 5 12 2 20 -3 9 0 20 8 25 12 8 11 12 -3 23 -17 13 -38
96 -72 291 -15 85 -16 308 -2 323 7 6 125 -27 144 -41 13 -10 17 -87 4 -87 -5
0 -7 -36 -4 -80 l5 -80 -49 -1 c-53 -1 -51 -4 10 -14 l38 -6 -5 -352 c-3 -194
-6 -352 -7 -352 -1 0 -3 -56 -4 -125 l-4 -125 11 102 c11 113 27 138 27 43 0
-47 3 -60 15 -60 8 0 15 6 16 13 0 6 2 41 3 77 2 36 8 75 13 85 6 11 14 83 17
160 4 77 11 181 16 230 8 92 6 111 -10 85 -11 -17 -6 137 6 184 7 28 7 28 70
23 50 -4 64 -2 64 9 0 8 10 15 23 15 12 1 -2 5 -31 10 -43 7 -56 6 -69 -7 -18
-17 -54 -15 -61 4 -2 6 5 12 15 13 16 0 15 1 -3 9 -19 7 -20 13 -13 62 4 29 8
74 8 101 1 35 5 47 16 47 8 0 15 -4 15 -9 0 -4 27 -11 59 -15 33 -4 61 -11 63
-15 2 -5 48 -11 103 -14 98 -5 153 -18 166 -39 8 -12 13 -106 14 -233 l0 -90
-90 -5 -90 -5 72 -5 c47 -4 79 -11 88 -21 12 -11 18 -46 22 -125 3 -60 10
-118 14 -129 6 -14 7 -9 3 15 -6 40 11 94 26 85 6 -4 10 8 10 30 0 29 5 38 21
42 16 5 19 11 13 36 -9 41 5 46 98 40 73 -5 78 -4 78 15 0 11 6 22 13 25 6 2
-14 6 -46 8 -41 3 -57 0 -57 -8 0 -7 -6 -13 -14 -13 -8 0 -20 -2 -28 -5 -7 -3
-20 0 -28 5 -13 9 -13 11 0 20 13 9 13 12 -3 21 -16 9 -18 25 -16 130 1 74 -3
124 -10 133 -15 18 -6 23 29 18 26 -4 30 -9 31 -36 0 -29 1 -29 9 -8 7 17 15
21 32 18 13 -3 44 -8 71 -11 26 -3 47 -10 47 -14 0 -15 193 -20 215 -7 11 7
54 16 95 19 41 3 76 11 78 17 8 23 32 9 32 -17 -3 -115 18 -247 41 -263 5 -3
11 -37 15 -75 6 -61 23 -124 24 -87 0 6 5 12 11 12 6 0 9 -9 6 -20 -3 -10 0
-26 7 -33 13 -17 104 -48 155 -54 42 -5 131 -51 139 -73 3 -8 10 -18 16 -22
17 -11 12 -123 -8 -152 -26 -41 -51 -33 -95 33 -22 32 -60 79 -85 104 -26 25
-46 50 -46 55 0 23 -40 45 -74 39 -54 -9 -144 -54 -162 -82 -20 -31 -41 -32
-55 -1 -9 20 -22 25 -92 35 -108 15 -136 14 -143 -4 -9 -22 -26 -18 -19 4 5
18 0 19 -82 16 -48 -2 -107 -4 -130 -4 -31 -1 -43 -5 -43 -16 0 -11 -11 -15
-38 -15 -25 0 -41 -6 -48 -18 -6 -10 -35 -24 -63 -32 -28 -7 -51 -17 -51 -21
0 -4 -11 -10 -25 -13 -14 -4 -25 -11 -25 -16 0 -14 8 -13 68 10 29 11 61 20
72 20 21 0 27 -24 9 -36 -8 -5 -6 -10 5 -16 9 -5 16 -22 16 -38 0 -56 19 -41
22 17 l3 58 254 1 c234 2 255 0 272 -17 12 -12 20 -15 25 -7 5 8 10 7 18 -3 7
-9 31 -14 64 -14 42 -1 52 3 52 16 0 9 -16 24 -35 35 -19 10 -35 21 -35 25 0
10 78 59 94 59 8 0 18 -5 21 -10 4 -6 11 -8 16 -4 17 10 93 -43 162 -115 38
-39 73 -71 78 -71 5 0 8 -10 7 -22 -1 -13 15 -57 36 -98 38 -76 41 -98 45
-298 1 -19 5 -31 11 -27 6 3 7 43 3 99 -3 52 -2 102 2 113 4 10 7 26 6 35 -1
10 7 38 18 62 11 25 17 54 14 65 -3 12 -1 21 6 21 6 0 11 -7 11 -15 0 -8 4
-15 10 -15 5 0 7 -7 4 -15 -4 -8 -1 -15 5 -15 6 0 11 2 11 4 0 1 11 48 24 102
19 76 25 129 25 224 l1 125 -20 -32 c-11 -18 -24 -33 -30 -33 -5 0 -7 -7 -4
-15 4 -10 0 -15 -11 -15 -10 0 -15 5 -12 13 4 10 -9 12 -57 9 -48 -3 -65 0
-75 12 -7 9 -20 16 -28 16 -9 0 -42 14 -73 32 l-58 32 -7 60 c-3 34 -10 72
-15 86 -5 14 -10 62 -13 108 -5 111 7 118 91 57 33 -24 64 -54 68 -67 4 -13
16 -29 26 -37 14 -9 18 -20 14 -37 -5 -17 -2 -24 8 -24 31 0 61 267 32 295
-13 14 -14 11 -9 -21 8 -49 -19 -42 -29 7 -4 19 -5 7 -2 -28 6 -73 -5 -80 -54
-38 -17 14 -35 25 -41 25 -6 0 -30 17 -52 38 -26 23 -50 36 -62 34 -14 -3 -18
1 -14 11 4 10 0 13 -12 10 -10 -2 -24 2 -32 9 -11 10 -53 14 -174 15 -170 1
-257 7 -370 24 -78 13 -93 18 -75 29 7 4 -2 10 -24 14 -20 4 -36 12 -36 17 0
6 -9 8 -20 4 -22 -7 -100 12 -100 24 0 5 -42 11 -92 14 -105 5 -207 19 -322
44 l-78 17 3 81 c4 125 -4 141 -12 25 -9 -125 -10 -130 -22 -130 -5 0 -7 7 -3
15 4 12 -3 15 -31 15 -33 0 -35 -1 -18 -13 27 -20 6 -27 -48 -15 -55 11 -65
34 -12 25 43 -7 47 11 5 20 -22 4 -29 10 -26 22 3 9 8 30 12 46 6 28 5 29 -8
11 -8 -10 -20 -16 -25 -13 -6 4 -16 -7 -24 -24 -12 -31 -13 -31 -68 -25 -31 3
-67 8 -81 11 -14 2 -7 -2 15 -9 22 -8 55 -15 73 -15 23 -1 32 -6 32 -18 0 -9
-3 -13 -6 -10 -13 13 -53 -82 -90 -211 -21 -73 -41 -132 -45 -132 -4 0 -29 37
-55 81 -26 45 -62 95 -81 112 -23 21 -33 39 -34 61 0 17 -3 25 -6 19 -12 -32
-48 1 -138 127 -29 41 -66 85 -82 96 l-29 22 0 -21 c1 -12 7 -28 14 -37 34
-40 105 -138 119 -163 22 -43 70 -193 84 -266 13 -68 5 -141 -28 -245 -12 -38
-13 -50 -3 -56 18 -11 2 -52 -18 -48 -14 3 -18 23 -25 123 -9 130 -10 147 -21
215 -13 86 -18 99 -29 97 -7 -1 -13 14 -15 37 -2 21 -10 45 -18 53 -8 8 -14
22 -14 30 0 9 -7 24 -15 33 -9 9 -20 53 -26 100 -6 50 -16 88 -24 94 -9 7 -18
40 -23 81 l-8 70 -5 -100z"/>
<path d="M1726 1833 c3 -38 6 -86 5 -107 -1 -42 27 -157 40 -166 5 -3 11 -37
15 -75 6 -61 23 -124 24 -87 0 6 5 12 11 12 6 0 9 -9 6 -20 -3 -10 0 -26 7
-33 13 -17 104 -48 155 -54 42 -5 131 -51 139 -73 3 -8 10 -18 16 -22 17 -11
12 -123 -8 -152 -26 -41 -51 -33 -95 33 -22 32 -60 79 -85 104 -26 25 -46 50
-46 55 0 5 -9 17 -20 27 -41 37 -155 -8 -244 -95 -74 -74 -70 -98 5 -28 68 64
101 83 126 73 10 -5 22 -7 27 -6 19 4 96 -52 159 -118 38 -39 73 -71 78 -71 5
0 8 -10 7 -22 -1 -13 15 -57 36 -98 38 -76 41 -98 45 -298 1 -19 5 -31 11 -27
6 3 7 43 3 99 -3 52 -2 102 2 113 4 10 7 26 6 35 -1 10 7 38 18 62 11 25 17
54 14 65 -3 12 -1 21 6 21 6 0 11 -7 11 -15 0 -8 5 -15 11 -15 6 0 7 -5 2 -12
-8 -13 -12 -29 -15 -60 -1 -10 -6 -18 -11 -18 -4 0 -6 -4 -3 -9 4 -5 2 -21 -4
-35 -9 -24 -8 -25 10 -13 11 6 23 20 26 30 3 11 12 16 20 13 8 -3 14 -1 14 3
0 5 16 19 36 32 33 20 40 21 102 10 101 -18 132 -18 132 -3 0 8 6 12 13 9 6
-2 11 -11 9 -19 -1 -11 9 -18 32 -22 34 -7 102 -47 293 -177 56 -38 104 -65
107 -60 12 19 -181 276 -232 308 -15 10 -45 31 -67 49 -22 17 -49 36 -60 42
-19 10 -21 8 -17 -25 l5 -36 -49 7 c-27 4 -74 10 -104 13 -56 6 -94 28 -72 42
14 8 28 117 36 271 4 58 8 122 11 144 4 23 1 44 -7 53 -6 8 -12 41 -12 74 -1
32 -4 59 -8 59 -5 0 -8 7 -8 15 0 8 -4 23 -9 33 -25 47 -51 129 -52 161 0 29
-2 32 -9 16 -5 -11 -9 -39 -9 -62 -1 -23 -5 -45 -11 -48 -14 -8 -13 -92 1 -97
12 -4 16 -270 4 -360 -10 -83 -25 -71 -25 20 l0 77 -20 -32 c-11 -18 -24 -33
-30 -33 -5 0 -7 -7 -4 -15 4 -10 0 -15 -11 -15 -10 0 -15 5 -12 13 4 10 -9 12
-57 9 -48 -3 -65 0 -75 12 -7 9 -20 16 -28 16 -9 0 -42 14 -73 32 l-58 32 -7
60 c-3 34 -10 72 -15 86 -5 14 -10 62 -13 108 -5 111 7 118 91 57 33 -24 64
-54 68 -67 4 -13 16 -29 26 -37 14 -9 18 -20 14 -37 -5 -17 -2 -24 8 -24 31 0
61 267 32 295 -13 14 -14 11 -9 -21 8 -49 -19 -42 -29 7 -4 19 -5 7 -2 -28 6
-73 -5 -80 -54 -38 -17 14 -35 25 -41 25 -6 0 -30 17 -52 38 -26 23 -50 36
-62 34 -14 -3 -18 0 -14 12 4 9 1 13 -6 10 -7 -2 -32 2 -56 11 -71 25 -72 24
-65 -52z"/>
<path d="M5744 1399 c4 -129 4 -242 1 -251 -4 -9 -20 -20 -36 -23 -16 -4 -31
-11 -34 -16 -8 -12 -35 -12 -35 0 0 5 10 13 23 17 20 7 20 8 -10 14 -17 4 -49
4 -70 0 -21 -4 -30 -8 -20 -9 20 -1 22 -28 3 -50 -15 -19 -38 -82 -31 -89 2
-2 9 6 15 19 7 16 28 30 64 42 85 28 93 25 110 -35 23 -80 37 -197 42 -353 3
-76 7 -141 9 -144 3 -2 1 -9 -4 -15 -4 -6 -5 -49 -2 -96 l6 -85 9 68 c5 43 13
70 21 74 11 3 15 28 15 91 1 48 2 103 3 122 1 19 -2 85 -6 146 -7 94 -6 114 7
127 20 20 20 27 1 27 -9 0 -15 10 -15 26 0 19 4 25 15 20 8 -3 15 -1 15 4 0 5
12 9 28 9 40 0 92 12 92 22 0 5 11 9 25 9 16 0 25 6 25 16 0 10 6 14 14 11 8
-3 17 -3 20 1 4 3 27 7 51 8 25 2 52 7 60 12 9 5 -52 8 -149 9 -90 0 -169 4
-175 7 -7 5 -11 71 -11 196 0 115 -4 191 -10 195 -5 3 -10 1 -10 -4 0 -6 -6
-11 -14 -11 -13 0 -26 41 -26 86 0 12 -5 26 -11 30 -9 5 -10 -52 -5 -227z"/>
<path d="M1031 1498 c-5 -13 -16 -40 -24 -60 -11 -25 -12 -38 -5 -38 13 0 1
-14 -13 -16 -5 -1 -13 -2 -19 -3 -5 0 -10 -8 -10 -16 0 -8 5 -15 10 -15 6 0
10 4 10 8 0 16 27 9 39 -11 7 -10 9 -17 4 -14 -5 3 -14 -12 -20 -34 -9 -36 -8
-41 11 -51 45 -24 47 -48 3 -48 -21 0 -36 -7 -45 -20 -14 -22 -4 -27 18 -7 8
6 4 0 -9 -15 -19 -21 -27 -25 -38 -17 -10 9 -13 6 -13 -12 0 -20 -2 -21 -10
-9 -8 11 -9 9 -5 -10 6 -27 -21 -70 -44 -70 -6 0 -11 -5 -11 -11 0 -5 -4 -7
-10 -4 -5 3 -10 -1 -10 -9 0 -9 -5 -16 -10 -16 -6 0 -10 -6 -8 -14 2 -8 -10
-25 -25 -38 -27 -24 -35 -47 -25 -78 3 -8 3 -12 1 -7 -12 21 -18 1 -17 -55 1
-35 0 -54 -2 -43 -10 39 -14 46 -24 40 -6 -4 -7 -12 -3 -18 9 -14 9 -15 17
-93 l6 -59 -20 35 c-10 19 -20 44 -20 55 -1 15 -4 12 -12 -10 -5 -16 -10 -38
-10 -47 1 -10 -3 -20 -9 -23 -5 -4 -9 3 -9 13 0 11 -7 25 -15 32 -13 11 -14
10 -9 -4 4 -11 1 -16 -10 -16 -9 0 -16 5 -16 10 0 6 -6 10 -12 10 -15 0 -61
64 -64 89 -2 11 3 9 17 -8 10 -13 19 -29 19 -37 0 -8 4 -14 10 -14 16 0 -11
52 -42 83 -29 29 -36 47 -17 47 5 0 7 5 3 11 -5 8 -10 6 -16 -5 -5 -9 -14 -14
-19 -11 -5 4 -7 10 -4 15 3 5 0 12 -6 16 -8 4 -7 9 2 15 11 7 11 9 -1 9 -13 0
-13 1 0 11 13 9 13 10 0 6 -8 -2 -14 -10 -13 -16 5 -18 -5 -13 -18 10 -6 12
-7 19 -1 15 5 -3 13 1 16 10 4 11 1 14 -12 10 -10 -3 -23 3 -33 17 -13 18 -73
168 -90 225 -2 6 -2 -42 0 -108 2 -79 -2 -151 -13 -213 -9 -52 -16 -110 -16
-128 0 -19 -9 -59 -20 -89 -37 -101 -18 -170 45 -170 36 0 40 -6 51 -75 9 -62
48 -106 117 -132 39 -14 61 -17 86 -11 38 10 61 -3 61 -36 0 -12 15 -33 35
-49 19 -15 35 -35 35 -43 0 -22 52 -40 157 -53 63 -9 97 -9 111 -2 31 16 201
200 221 239 17 32 4 189 -16 196 -8 3 -35 1 -60 -5 -29 -8 -47 -8 -52 -2 -11
17 -36 21 -78 13 -23 -4 -47 -4 -54 0 -31 20 42 61 125 71 32 4 61 11 65 16 8
10 17 12 85 14 40 2 60 7 72 21 12 12 21 15 29 8 8 -7 15 -3 23 15 11 24 10
25 -7 15 -11 -5 -48 -13 -83 -16 -35 -3 -66 -8 -70 -10 -4 -3 -5 9 -3 26 2 19
-1 30 -8 29 -24 -3 -35 1 -41 16 -5 13 -2 14 17 4 19 -11 21 -10 9 3 -11 14
-9 16 13 14 14 0 25 -7 25 -14 0 -7 5 -10 10 -7 6 4 8 10 5 15 -5 8 36 23 43
15 3 -2 5 -15 5 -28 0 -23 1 -23 17 -8 10 9 30 26 45 39 15 12 23 22 18 23 -4
0 1 4 12 9 17 7 17 9 3 9 -22 1 -23 14 -3 31 8 7 15 20 15 29 1 9 9 32 20 51
l19 35 -6 -57 c-4 -40 -2 -58 6 -58 6 0 11 16 11 36 0 20 4 33 10 29 17 -10
52 97 65 200 1 11 3 24 4 28 0 5 6 5 11 2 10 -6 14 1 24 48 6 24 3 27 -18 27
-14 0 -28 5 -32 12 -5 7 -2 9 8 6 8 -4 21 -2 29 3 14 9 9 16 -26 34 -6 3 -5 7
3 11 10 5 10 9 1 20 -9 11 -8 15 5 20 22 9 21 35 -1 27 -15 -5 -14 -3 2 10 19
14 19 16 2 34 -9 11 -17 33 -17 49 0 17 -6 38 -12 47 -11 15 -13 9 -11 -35 1
-44 -1 -49 -10 -30 -12 27 -23 28 -36 4 -15 -28 -99 -58 -122 -43 -10 6 -25
11 -33 11 -8 0 -16 6 -19 14 -3 8 -18 23 -32 32 -25 16 -27 16 -57 -6 -17 -12
-27 -16 -23 -9 5 8 -2 5 -14 -5 -17 -16 -20 -16 -16 -4 4 9 2 19 -4 23 -6 3
-11 1 -11 -6 0 -8 -4 -8 -15 1 -9 8 -15 30 -15 56 0 47 -15 58 -29 22z m151
-106 c-7 -2 -12 -8 -12 -14 0 -5 9 -7 20 -3 13 4 23 0 32 -14 7 -12 18 -21 25
-21 7 0 13 -5 13 -11 0 -8 13 -9 43 -4 65 12 107 14 101 4 -3 -5 0 -9 5 -9 10
0 45 -70 38 -77 -8 -8 -168 -5 -323 6 -5 1 -11 21 -13 46 -2 40 1 46 24 55 14
5 25 12 25 14 0 3 -7 3 -15 0 -10 -4 -7 3 7 19 12 14 27 23 32 19 6 -3 5 -7
-2 -10z"/>
</g>
</svg>
