<?xml version="1.0" standalone="no"?>
<!DOCTYPE svg PUBLIC "-//W3C//DTD SVG 20010904//EN"
 "http://www.w3.org/TR/2001/REC-SVG-20010904/DTD/svg10.dtd">
<svg version="1.0" xmlns="http://www.w3.org/2000/svg"
 width="583.000000pt" height="274.000000pt" viewBox="0 0 583.000000 274.000000"
 preserveAspectRatio="xMidYMid meet">
<style type="text/css">
  g{
  stroke: hotpink;
  animation-name: glow;
  animation-duration:2s;
  animation-iteration-count:infinite;


  }
  @keyframes glow{
    1%   {stroke-width:5px;}
    10%  {stroke-width:10px;}
    20%  {stroke-width:15px;}
    30% {stroke-width:20px;}
    40% {stroke-width:25px;}
    50% {stroke-width:20px;}
    60% {stroke-width:15px;}
    70% {stroke-width:10px;}
    80% {stroke-width:10px;}
    100% {stroke-width:1px;}


  }
</style>
<defs>
    <filter id="f2" x="0" y="0" width="200%" height="200%">
  <feOffset result="offOut" in="SourceGraphic" dx="50" dy="50" />
  <feGaussianBlur result="blurOut" in="offOut" stdDeviation="19" />
  <feBlend in="SourceGraphic" in2="blurOut" mode="normal" />
  </filter>
</defs>


<metadata>
Created by potrace 1.15, written by Peter Selinger 2001-2017
</metadata>
<g transform="translate(0.000000,274.000000) scale(0.100000,-0.100000)"
fill="#000000" stroke="none" filter="url(#f2)">
<path d="M2226 2538 c-63 -208 -166 -582 -166 -603 0 -12 9 -33 19 -46 19 -23
25 -24 181 -27 171 -4 201 2 238 41 14 15 53 134 117 357 53 184 98 341 100
348 3 9 -11 12 -53 12 l-58 0 -89 -316 c-50 -174 -96 -323 -103 -330 -19 -20
-52 -18 -52 4 0 9 18 76 39 147 l38 130 -50 3 c-27 2 -53 0 -57 -5 -4 -4 -15
-35 -25 -68 -57 -205 -65 -225 -90 -225 -13 0 -26 4 -30 9 -3 6 35 152 85 325
49 173 90 318 90 321 0 3 -24 5 -54 5 l-55 0 -25 -82z"/>
<path d="M242 2593 c-19 -9 -40 -26 -47 -37 -26 -41 -177 -591 -173 -632 4
-55 45 -74 153 -74 108 1 158 23 185 82 l19 43 -56 3 c-31 2 -61 -2 -66 -7 -6
-6 -35 -11 -64 -11 -44 0 -53 3 -53 18 0 9 31 127 70 262 46 160 76 249 87
258 10 7 37 12 63 10 39 -3 45 -6 44 -25 -1 -21 4 -23 56 -23 l57 0 6 38 c15
89 -18 112 -155 112 -66 0 -103 -5 -126 -17z"/>
<path d="M615 2553 c-10 -32 -59 -203 -110 -380 l-93 -323 63 0 62 0 28 103
c47 171 37 168 107 24 l61 -127 53 0 53 0 -24 55 c-14 30 -40 85 -59 122 -55
112 -55 113 0 113 40 0 51 5 84 38 30 30 44 60 78 165 51 156 55 215 16 246
-24 19 -40 21 -165 21 l-138 0 -16 -57z m212 -69 c5 -14 -24 -134 -48 -196
-14 -34 -74 -51 -108 -29 -12 8 -10 25 13 108 17 60 35 105 48 116 26 22 86
23 95 1z"/>
<path d="M1096 2593 c-40 -136 -206 -725 -206 -733 0 -5 23 -10 53 -10 l53 0
103 363 c57 199 106 370 109 380 4 15 -3 17 -51 17 -44 0 -57 -4 -61 -17z"/>
<path d="M1363 2596 c-17 -8 -39 -26 -48 -40 -14 -21 -93 -280 -194 -636 l-19
-70 57 0 57 0 88 308 c49 169 93 315 97 324 11 20 48 33 59 21 5 -4 -20 -106
-54 -225 -35 -119 -66 -228 -70 -242 -6 -26 -5 -26 48 -26 l54 0 16 48 c8 26
38 127 66 224 27 97 54 188 60 202 11 29 47 36 57 10 4 -12 -146 -558 -174
-631 -4 -10 11 -13 53 -13 l59 0 93 323 c51 177 93 338 92 358 0 67 -19 74
-204 76 -121 2 -169 -1 -193 -11z"/>
<path d="M1770 2243 c-58 -201 -106 -372 -108 -380 -3 -11 26 -13 164 -11
l167 3 18 50 c27 78 31 75 -85 75 -58 0 -107 4 -110 8 -2 4 7 49 22 100 l26
92 81 0 82 0 16 60 c10 33 17 62 17 65 0 3 -36 5 -79 5 l-79 0 22 83 23 82
108 5 107 5 19 60 c10 33 19 61 19 63 0 1 -73 2 -162 2 l-163 0 -105 -367z"/>
<path d="M2841 2592 c-19 -9 -43 -28 -53 -42 -14 -19 -208 -668 -208 -696 0
-3 28 -4 62 -2 l61 3 51 178 50 177 72 0 72 0 -53 -180 -53 -180 64 0 c35 0
64 1 64 3 0 1 41 144 90 317 106 372 109 395 49 425 -42 22 -223 20 -268 -3z
m174 -103 c4 -6 -1 -42 -11 -80 l-18 -69 -72 0 -73 0 19 66 c11 36 24 72 31
80 14 17 114 19 124 3z"/>
<path d="M3210 2230 l0 -380 54 0 54 0 20 48 c53 123 292 703 292 708 0 3 -26
4 -57 2 l-58 -3 -94 -222 c-52 -123 -98 -223 -103 -223 -4 0 -8 101 -8 225 l0
225 -50 0 -50 0 0 -380z"/>
<path d="M3600 2243 c-58 -201 -106 -372 -108 -380 -3 -11 26 -13 164 -11
l167 3 18 50 c27 78 31 75 -85 75 -58 0 -107 4 -110 8 -2 4 7 49 22 100 l26
92 81 0 82 0 16 60 c10 33 17 62 17 65 0 3 -36 5 -79 5 l-79 0 22 83 23 82
108 5 107 5 19 60 c10 33 19 61 19 63 0 1 -73 2 -162 2 l-163 0 -105 -367z"/>
<path d="M4115 2592 c-16 -11 -36 -25 -42 -34 -14 -16 -183 -597 -183 -627 0
-11 11 -33 24 -48 24 -27 26 -28 133 -28 88 0 114 3 136 18 29 19 67 73 67 95
0 15 -106 17 -115 2 -7 -12 -125 -14 -125 -2 0 28 151 526 162 533 7 5 33 8
58 7 38 -3 45 -6 48 -25 3 -21 9 -23 57 -23 59 0 65 6 65 70 0 30 -6 43 -26
59 -23 18 -41 21 -128 21 -80 0 -107 -4 -131 -18z"/>
<path d="M4505 2598 c-2 -7 -50 -173 -105 -368 -55 -195 -103 -361 -105 -367
-3 -10 31 -13 148 -13 l153 0 14 53 c7 28 15 58 17 65 4 9 -17 12 -86 12 -74
0 -91 3 -91 15 0 11 133 489 166 598 5 15 -2 17 -51 17 -35 0 -57 -5 -60 -12z"/>
<path d="M4845 2598 c-36 -106 -175 -624 -175 -655 0 -76 54 -100 208 -91 90
5 135 25 158 70 9 18 56 170 104 339 48 169 91 316 95 328 6 20 3 21 -57 21
l-63 0 -84 -298 c-46 -163 -90 -307 -98 -319 -11 -20 -22 -23 -73 -23 -51 0
-60 3 -60 18 0 9 38 151 85 314 47 164 85 300 85 303 0 12 -121 5 -125 -7z"/>
<path d="M5320 2585 c-5 -14 -53 -177 -105 -363 -53 -185 -98 -345 -101 -354
-5 -17 6 -18 131 -18 154 0 193 11 224 60 21 35 182 591 181 628 0 13 -11 34
-25 47 -23 24 -29 25 -160 25 l-135 0 -10 -25z m205 -85 c3 -5 -4 -46 -16 -90
l-22 -80 -64 0 c-34 0 -63 3 -63 6 0 6 35 130 45 162 5 15 111 17 120 2z m-79
-307 c-3 -10 -17 -61 -32 -113 -14 -52 -32 -101 -38 -108 -8 -9 -32 -12 -68
-10 l-55 3 35 123 35 122 64 0 c57 0 64 -2 59 -17z"/>
<path d="M1810 1755 c-11 -12 -45 -85 -74 -161 l-53 -139 -74 -6 c-41 -4 -383
-7 -761 -8 -402 0 -697 -5 -711 -10 -14 -6 -29 -20 -34 -33 -4 -13 -7 -105 -6
-205 3 -252 40 -448 88 -467 15 -5 241 59 704 201 210 64 609 174 719 198 29
6 37 3 67 -30 19 -20 35 -43 35 -51 0 -23 -49 -115 -169 -314 -65 -109 -107
-188 -102 -193 11 -11 236 -67 267 -67 17 0 24 9 33 46 12 46 93 216 136 285
28 43 34 44 255 55 l136 6 22 -194 c12 -106 36 -259 54 -340 30 -137 34 -148
54 -148 19 0 124 29 357 97 22 7 21 19 -17 139 -40 131 -80 384 -79 498 1 95
2 99 31 130 34 34 52 74 52 112 0 23 3 24 63 24 37 0 68 -5 75 -12 10 -10 191
-14 820 -16 444 -2 817 0 830 3 12 3 41 24 64 47 l42 42 316 8 c173 4 365 9
425 10 l110 3 0 50 0 50 -55 7 c-30 3 -189 6 -352 7 l-298 1 0 148 c0 132 -2
151 -18 165 -45 41 -82 14 -163 -120 -28 -45 -54 -85 -59 -88 -5 -3 -24 2 -42
11 -30 16 -93 17 -808 16 -697 -1 -778 -2 -811 -17 -31 -15 -45 -15 -93 -5
l-56 11 0 58 c0 64 -22 105 -67 122 -18 7 -585 73 -790 93 -34 3 -46 -1 -63
-19z m798 -101 c52 -6 82 -33 82 -72 0 -57 -22 -65 -218 -74 -165 -8 -434 -3
-474 8 -26 8 -22 53 7 97 14 20 27 38 28 38 18 12 481 14 575 3z m2136 -81 c3
-42 6 -102 6 -135 l0 -58 -64 0 c-62 0 -66 1 -91 34 -26 34 -26 35 -9 68 45
88 109 168 134 168 14 0 18 -14 24 -77z m-2559 -573 c23 -9 26 -14 23 -52 l-3
-43 -72 -3 -71 -3 -7 29 c-3 16 -3 41 1 56 6 24 11 26 54 26 27 0 61 -4 75
-10z"/>
</g>
</svg>
